<svg xmlns="http://www.w3.org/2000/svg" width="1280" height="360" viewBox="0 0 1280 360" role="img" aria-labelledby="title desc">
  <title id="title">Nebius AI Performance Engineering banner</title>
  <desc id="desc">A professional repository banner for LLM architecture experiments with LoRA, RoPE, and Mixture of Experts.</desc>
  <defs>
    <linearGradient id="bg" x1="0" y1="0" x2="1" y2="1"><stop offset="0" stop-color="#0b1117"/><stop offset="1" stop-color="#121c23"/></linearGradient>
    <marker id="arrow" markerWidth="10" markerHeight="10" refX="8" refY="5" orient="auto"><path d="M1 1L9 5L1 9Z" fill="#8fa2aa"/></marker>
  </defs>
  <rect width="1280" height="360" fill="url(#bg)"/>
  <g opacity="0.18" stroke="#8fa2aa" stroke-width="1"><path d="M0 72H1280M0 144H1280M0 216H1280M0 288H1280"/><path d="M160 0V360M320 0V360M480 0V360M640 0V360M800 0V360M960 0V360M1120 0V360"/></g>
  <path d="M0 358H1280" stroke="#c9ff33" stroke-width="4"/>
  <g transform="translate(72 62)">
    <text x="0" y="0" fill="#c9ff33" font-family="Inter, Segoe UI, Arial, sans-serif" font-size="24" font-weight="700" letter-spacing="1.6">NEBIUS AI PERFORMANCE ENGINEERING</text>
    <text x="0" y="72" fill="#f3f7f9" font-family="Inter, Segoe UI, Arial, sans-serif" font-size="58" font-weight="760">LLM Architecture Lab</text>
    <text x="2" y="120" fill="#aebdc5" font-family="Inter, Segoe UI, Arial, sans-serif" font-size="24">LoRA adaptation, rotary attention, and sparse expert routing</text>
  </g>
  <g transform="translate(74 250)" font-family="Inter, Segoe UI, Arial, sans-serif" font-size="17" font-weight="650">
    <rect x="0" y="0" width="170" height="44" rx="5" fill="#17232b" stroke="#34d6bb"/><text x="24" y="29" fill="#dffdf7">LoRA</text>
    <rect x="198" y="0" width="170" height="44" rx="5" fill="#17232b" stroke="#f3ba4d"/><text x="222" y="29" fill="#fff3d5">RoPE</text>
    <rect x="396" y="0" width="170" height="44" rx="5" fill="#17232b" stroke="#a891ff"/><text x="420" y="29" fill="#eee9ff">MoE</text>
  </g>
  <g transform="translate(778 64)">
    <rect x="0" y="0" width="430" height="222" rx="8" fill="#111a21" stroke="#2f404a"/>
    <g transform="translate(36 42)">
      <rect x="0" y="16" width="92" height="44" rx="5" fill="#1d2a33" stroke="#34d6bb"/><text x="27" y="44" fill="#dffdf7" font-family="Inter, Segoe UI, Arial, sans-serif" font-size="15" font-weight="700">base</text>
      <rect x="142" y="0" width="64" height="32" rx="4" fill="#123331" stroke="#34d6bb"/><text x="170" y="22" fill="#dffdf7" font-family="Inter, Segoe UI, Arial, sans-serif" font-size="14" font-weight="700">A</text>
      <rect x="142" y="48" width="64" height="32" rx="4" fill="#123331" stroke="#34d6bb"/><text x="170" y="70" fill="#dffdf7" font-family="Inter, Segoe UI, Arial, sans-serif" font-size="14" font-weight="700">B</text>
      <path d="M92 38H142M206 16H280M206 64H280" stroke="#8fa2aa" stroke-width="2" marker-end="url(#arrow)"/>
      <circle cx="326" cy="40" r="28" fill="none" stroke="#f3ba4d" stroke-width="3"/><path d="M326 40L326 16M326 40L348 53" stroke="#f3ba4d" stroke-width="3" stroke-linecap="round"/>
    </g>
    <g transform="translate(72 142)">
      <circle cx="0" cy="0" r="8" fill="#a891ff"/><circle cx="76" cy="-24" r="8" fill="#a891ff"/><circle cx="76" cy="0" r="8" fill="#a891ff"/><circle cx="76" cy="24" r="8" fill="#a891ff"/>
      <path d="M8 0C34 0 44 -24 68 -24M8 0H68M8 0C34 0 44 24 68 24" stroke="#a891ff" stroke-width="2.4" fill="none"/>
      <rect x="146" y="-28" width="150" height="56" rx="5" fill="#17232b" stroke="#2f404a"/><text x="168" y="6" fill="#c4d0d6" font-family="Inter, Segoe UI, Arial, sans-serif" font-size="15" font-weight="650">select top experts</text>
    </g>
  </g>
</svg>
