<svg xmlns="http://www.w3.org/2000/svg" width="1280" height="400" viewBox="0 0 1280 400" role="img" aria-labelledby="title desc">
  <title id="title">LLM Architecture Homework 4 banner</title>
  <desc id="desc">Simple Nebius AI Performance Engineering banner for LoRA, RoPE, and MoE tasks.</desc>
  <defs>
    <linearGradient id="bg" x1="0" y1="0" x2="1" y2="1">
      <stop offset="0" stop-color="#101418"/>
      <stop offset="1" stop-color="#182126"/>
    </linearGradient>
    <filter id="softShadow" x="-20%" y="-20%" width="140%" height="140%">
      <feDropShadow dx="0" dy="10" stdDeviation="14" flood-color="#000000" flood-opacity="0.28"/>
    </filter>
  </defs>
  <rect width="1280" height="400" fill="url(#bg)"/>
  <g opacity="0.16" stroke="#d7fff4" stroke-width="1">
    <path d="M0 80H1280M0 160H1280M0 240H1280M0 320H1280"/>
    <path d="M160 0V400M320 0V400M480 0V400M640 0V400M800 0V400M960 0V400M1120 0V400"/>
  </g>
  <g transform="translate(72 64)">
    <rect x="0" y="0" width="148" height="148" rx="24" fill="#c9ff33"/>
    <circle cx="74" cy="74" r="34" fill="#101418"/>
    <circle cx="74" cy="74" r="15" fill="#c9ff33"/>
    <path d="M74 20V48M74 100V128M20 74H48M100 74H128" stroke="#101418" stroke-width="14" stroke-linecap="round"/>
  </g>
  <g transform="translate(252 76)">
    <text x="0" y="0" fill="#c9ff33" font-family="Inter, Arial, sans-serif" font-size="28" font-weight="700" letter-spacing="1.5">NEBIUS AI PERFORMANCE ENGINEERING</text>
    <text x="0" y="70" fill="#f4f7f8" font-family="Inter, Arial, sans-serif" font-size="58" font-weight="800">LLM Architecture Homework 4</text>
    <text x="0" y="120" fill="#b8c5c9" font-family="Inter, Arial, sans-serif" font-size="25">LoRA adaptation, rotary attention, and sparse expert routing</text>
  </g>
  <g transform="translate(252 258)" filter="url(#softShadow)">
    <rect x="0" y="0" width="230" height="58" rx="12" fill="#243139" stroke="#4ee1c1"/>
    <text x="28" y="37" fill="#f4f7f8" font-family="Inter, Arial, sans-serif" font-size="22" font-weight="700">LoRA on GPT-2</text>
    <rect x="260" y="0" width="280" height="58" rx="12" fill="#243139" stroke="#ffc857"/>
    <text x="288" y="37" fill="#f4f7f8" font-family="Inter, Arial, sans-serif" font-size="22" font-weight="700">RoPE Attention</text>
    <rect x="570" y="0" width="300" height="58" rx="12" fill="#243139" stroke="#b38cff"/>
    <text x="598" y="37" fill="#f4f7f8" font-family="Inter, Arial, sans-serif" font-size="22" font-weight="700">Mixture of Experts</text>
  </g>
  <g transform="translate(1020 86)" stroke-linecap="round" stroke-linejoin="round">
    <rect x="0" y="0" width="154" height="210" rx="20" fill="#202a31" stroke="#50636b"/>
    <path d="M38 42H116M38 78H116M38 114H116M38 150H116" stroke="#4ee1c1" stroke-width="8"/>
    <path d="M-28 64C18 64 10 40 54 40M-28 146C18 146 10 170 54 170" stroke="#ffc857" stroke-width="5" fill="none"/>
    <circle cx="-32" cy="64" r="10" fill="#ffc857"/>
    <circle cx="-32" cy="146" r="10" fill="#ffc857"/>
    <circle cx="77" cy="105" r="54" fill="none" stroke="#b38cff" stroke-width="6" stroke-dasharray="14 12"/>
  </g>
</svg>
