<svg xmlns="http://www.w3.org/2000/svg" width="1280" height="700" viewBox="0 0 1280 700" role="img" aria-labelledby="title desc">
  <title id="title">RoPE and MoE method overview</title>
  <desc id="desc">A professional transformer block diagram showing rotary attention and sparse expert routing.</desc>
  <defs><marker id="arrow" markerWidth="10" markerHeight="10" refX="8" refY="5" orient="auto"><path d="M1 1L9 5L1 9Z" fill="#60717a"/></marker><filter id="shadow" x="-8%" y="-12%" width="116%" height="124%"><feDropShadow dx="0" dy="8" stdDeviation="12" flood-color="#12202a" flood-opacity="0.10"/></filter></defs>
  <rect width="1280" height="700" fill="#f6f8fa"/>
  <g transform="translate(64 58)"><text x="0" y="0" fill="#111820" font-family="Inter, Segoe UI, Arial, sans-serif" font-size="38" font-weight="760">RoPE + MoE transformer block</text><text x="0" y="40" fill="#53616a" font-family="Inter, Segoe UI, Arial, sans-serif" font-size="21">Rotary attention encodes position; sparse experts increase capacity without activating every FFN.</text></g>
  <g transform="translate(70 150)" filter="url(#shadow)"><rect x="0" y="0" width="508" height="446" rx="10" fill="#ffffff" stroke="#d8e0e5"/><rect x="0" y="0" width="508" height="46" rx="10" fill="#17212a"/><path d="M0 36H508V46H0Z" fill="#17212a"/><text x="24" y="30" fill="#f3f7f9" font-family="Inter, Segoe UI, Arial, sans-serif" font-size="18" font-weight="760">Rotary position embeddings</text><g transform="translate(42 84)"><rect x="0" y="80" width="116" height="48" rx="5" fill="#eef3f5" stroke="#cbd5db"/><text x="27" y="110" fill="#111820" font-family="Inter, Segoe UI, Arial, sans-serif" font-size="16" font-weight="730">tokens</text><rect x="174" y="24" width="106" height="42" rx="5" fill="#fff8e8" stroke="#f3ba4d"/><text x="219" y="51" fill="#5c410e" font-family="Inter, Segoe UI, Arial, sans-serif" font-size="16" font-weight="730">Q</text><rect x="174" y="88" width="106" height="42" rx="5" fill="#fff8e8" stroke="#f3ba4d"/><text x="219" y="115" fill="#5c410e" font-family="Inter, Segoe UI, Arial, sans-serif" font-size="16" font-weight="730">K</text><rect x="174" y="152" width="106" height="42" rx="5" fill="#eef3f5" stroke="#cbd5db"/><text x="219" y="179" fill="#111820" font-family="Inter, Segoe UI, Arial, sans-serif" font-size="16" font-weight="730">V</text><circle cx="374" cy="77" r="40" fill="none" stroke="#f3ba4d" stroke-width="4"/><path d="M374 77L374 41M374 77L406 96" stroke="#5c410e" stroke-width="4" stroke-linecap="round"/><text x="332" y="152" fill="#5c410e" font-family="Inter, Segoe UI, Arial, sans-serif" font-size="15" font-weight="700">rotate Q,K</text><path d="M116 104H174M116 104C144 104 146 45 174 45M116 104C144 104 146 173 174 173" stroke="#60717a" stroke-width="2.4" fill="none" marker-end="url(#arrow)"/><path d="M280 45C316 45 324 64 334 64M280 109C316 109 324 90 334 90" stroke="#60717a" stroke-width="2.4" fill="none" marker-end="url(#arrow)"/></g><g transform="translate(62 344)"><rect x="0" y="0" width="384" height="54" rx="6" fill="#fff8e8" stroke="#f3ba4d"/><text x="22" y="34" fill="#5c410e" font-family="Inter, Segoe UI, Arial, sans-serif" font-size="18" font-weight="720">position affects attention through vector rotation</text></g></g>
  <g transform="translate(702 150)" filter="url(#shadow)"><rect x="0" y="0" width="508" height="446" rx="10" fill="#ffffff" stroke="#d8e0e5"/><rect x="0" y="0" width="508" height="46" rx="10" fill="#17212a"/><path d="M0 36H508V46H0Z" fill="#17212a"/><text x="24" y="30" fill="#f3f7f9" font-family="Inter, Segoe UI, Arial, sans-serif" font-size="18" font-weight="760">Top-K Mixture of Experts</text><g transform="translate(44 86)"><rect x="0" y="86" width="110" height="46" rx="5" fill="#eef3f5" stroke="#cbd5db"/><text x="25" y="115" fill="#111820" font-family="Inter, Segoe UI, Arial, sans-serif" font-size="16" font-weight="730">tokens</text><rect x="170" y="70" width="126" height="78" rx="6" fill="#e8fbf6" stroke="#34d6bb"/><text x="204" y="103" fill="#116357" font-family="Inter, Segoe UI, Arial, sans-serif" font-size="18" font-weight="760">router</text><text x="191" y="128" fill="#477a72" font-family="Inter, Segoe UI, Arial, sans-serif" font-size="14">softmax + top K</text><rect x="368" y="0" width="86" height="42" rx="5" fill="#eee9ff" stroke="#a891ff"/><rect x="368" y="62" width="86" height="42" rx="5" fill="#eee9ff" stroke="#a891ff"/><rect x="368" y="124" width="86" height="42" rx="5" fill="#eee9ff" stroke="#a891ff"/><rect x="368" y="186" width="86" height="42" rx="5" fill="#eee9ff" stroke="#a891ff"/><text x="392" y="27" fill="#403066" font-family="Inter, Segoe UI, Arial, sans-serif" font-size="15" font-weight="750">E1</text><text x="392" y="89" fill="#403066" font-family="Inter, Segoe UI, Arial, sans-serif" font-size="15" font-weight="750">E2</text><text x="392" y="151" fill="#403066" font-family="Inter, Segoe UI, Arial, sans-serif" font-size="15" font-weight="750">E3</text><text x="392" y="213" fill="#403066" font-family="Inter, Segoe UI, Arial, sans-serif" font-size="15" font-weight="750">E4</text><path d="M110 109H170" stroke="#60717a" stroke-width="2.4" marker-end="url(#arrow)"/><path d="M296 109C330 109 330 21 368 21" stroke="#a891ff" stroke-width="2.8" fill="none" marker-end="url(#arrow)"/><path d="M296 109H368" stroke="#a891ff" stroke-width="2.8" fill="none" marker-end="url(#arrow)"/><path d="M296 109C330 109 330 207 368 207" stroke="#c5bddc" stroke-width="2" fill="none" stroke-dasharray="5 5"/><text x="314" y="260" fill="#6f5e99" font-family="Inter, Segoe UI, Arial, sans-serif" font-size="15" font-weight="700">only selected experts run</text></g><g transform="translate(56 344)"><rect x="0" y="0" width="396" height="54" rx="6" fill="#f1edff" stroke="#a891ff"/><text x="22" y="34" fill="#403066" font-family="Inter, Segoe UI, Arial, sans-serif" font-size="18" font-weight="720">capacity controls overflow; drop rate reports pressure</text></g></g>
  <g transform="translate(70 630)"><rect x="0" y="0" width="1140" height="42" rx="6" fill="#17212a"/><text x="24" y="27" fill="#f3f7f9" font-family="Inter, Segoe UI, Arial, sans-serif" font-size="17" font-weight="700">Block flow: token embeddings -&gt; RoPE attention -&gt; residual path -&gt; routed expert FFN -&gt; loss and drop-rate evaluation.</text></g>
</svg>
